# xmcd
#
# Track frame offsets:
#	150
#	13605
#	24485
#	35542
#	44467
#	55087
#	65847
#	74177
#	86367
#	96595
#	109179
#	121545
#	134570
#	146977
#	158812
#
# Disc length: 2272 seconds
#
# Revision: 4
# Processed by: cddbd v1.5.2PL0 Copyright (c) Steve Scherf et al.
# Submitted via: audiograbber 1.83.01
#
DISCID=dd08de0f
DTITLE=Various Artist - Time-Life - Classic Country - Golden '50s  [CD2)
DYEAR=1998
DGENRE=Oldies
TTITLE0=Stuart Hamblen - This Old House
TTITLE1=Hank Williams - I Can't Help It (If I'm Still In Love With You)
TTITLE2=Charlie Walker  - Pick Me Up On Your Way Down
TTITLE3=Faron Young - Alone With You
TTITLE4=Everly Brothers - All I Have To Do Is Dream
TTITLE5=Jimmie Rodgers - Kisses Sweeter Than Wine 
TTITLE6=Johnny Cash - Guesx Things Happen That Way
TTITLE7=Elvis Presley - I Want You, I Need You, I Love You
TTITLE8=Carl Perkins - Blue Suede Shoes
TTITLE9=Red Foley - Chattanoogie Shoe Shine Boy
TTITLE10=Hank Thompson - The Wild Side Of Life
TTITLE11=Bobby Helms - Fraulein
TTITLE12=Jim Reeves - Am I Losing You
TTITLE13=Don Gibson - I Can't Stop Loving You
TTITLE14=Eddy Arnold - You Don't Know Me
EXTD=
EXTT0=
EXTT1=
EXTT2=
EXTT3=
EXTT4=
EXTT5=
EXTT6=
EXTT7=
EXTT8=
EXTT9=
EXTT10=
EXTT11=
EXTT12=
EXTT13=
EXTT14=
PLAYORDER=
